<svg aria-hidden="true" style="position: absolute; width: 0; height: 0; overflow: hidden;" version="1.1" xmlns="http://www.w3.org/2000/svg" xmlns:xlink="http://www.w3.org/1999/xlink">
<defs>
<symbol id="icon-trash" viewBox="0 0 32 32">
<path stroke-linejoin="round" stroke-linecap="round" stroke-miterlimit="4" stroke-width="3.2" d="M11.6 2.8h8.8M2.8 7.2h26.4M26.267 7.2l-1.029 15.428c-0.154 2.315-0.232 3.472-0.731 4.35-0.44 0.772-1.104 1.394-1.904 1.781-0.909 0.44-2.069 0.44-4.389 0.44h-4.427c-2.32 0-3.48 0-4.389-0.44-0.8-0.388-1.464-1.009-1.904-1.781-0.5-0.878-0.577-2.035-0.731-4.35l-1.029-15.428M13.067 13.8v7.333M18.933 13.8v7.333"></path>
</symbol>
<symbol id="icon-x-close" viewBox="0 0 32 32">
<path stroke-linejoin="round" stroke-linecap="round" stroke-miterlimit="4" stroke-width="5.3333" d="M28.444 3.556l-24.889 24.889M3.556 3.556l24.889 24.889"></path>
</symbol>
<symbol id="icon-edit" viewBox="0 0 32 32">
<path d="M27 0c2.761 0 5 2.239 5 5 0 1.126-0.372 2.164-1 3l-2 2-7-7 2-2c0.836-0.628 1.874-1 3-1zM2 23l-2 9 9-2 18.5-18.5-7-7-18.5 18.5zM22.362 11.362l-14 14-1.724-1.724 14-14 1.724 1.724z"></path>
</symbol>
</defs>
</svg>
